<svg width="660" height="651" viewBox="0 0 660 651" fill="none" xmlns="http://www.w3.org/2000/svg">
<path d="M660 325.5C660 505.269 512.254 651 330 651C147.746 651 0 505.269 0 325.5C0 145.731 147.746 0 330 0C512.254 0 660 145.731 660 325.5Z" fill="white"/>
<path d="M405 246.5C405 290.407 369.407 326 325.5 326C281.593 326 246 290.407 246 246.5C246 202.593 281.593 167 325.5 167C369.407 167 405 202.593 405 246.5Z" fill="#D9D9D9"/>
<path d="M475 497C475 458.544 459.723 421.662 432.53 394.47C405.338 367.277 368.456 352 330 352C291.544 352 254.662 367.277 227.47 394.47C200.277 421.662 185 458.544 185 497L475 497Z" fill="#D9D9D9"/>
</svg>
