<svg width="656" height="640" viewBox="0 0 656 640" fill="none" xmlns="http://www.w3.org/2000/svg">
<path d="M656 320C656 496.731 509.149 640 328 640C146.851 640 0 496.731 0 320C0 143.269 146.851 0 328 0C509.149 0 656 143.269 656 320Z" fill="white"/>
<path fill-rule="evenodd" clip-rule="evenodd" d="M267.956 319.758C267.956 213.343 337.177 122.907 434 88.284C406.846 78.5679 377.637 73 347.022 73C207.282 73 94 183.486 94 319.758C94 456.045 207.282 566.515 347.022 566.515C377.637 566.515 406.846 560.947 434 551.231C337.177 516.608 267.956 426.187 267.956 319.758Z" fill="black"/>
</svg>
