<svg width="50" height="50" viewBox="0 0 50 50" fill="none" xmlns="http://www.w3.org/2000/svg">
<rect width="50" height="50" rx="20" fill="#C0C0C0"/>
<path d="M12.5449 38.9596C11.8985 38.9596 11.4003 38.7711 11.0503 38.3941C10.7002 37.9902 10.5251 37.4383 10.5251 36.7382V20.9861C10.5251 20.286 10.7002 19.7474 11.0503 19.3705C11.4003 18.9935 11.8985 18.805 12.5449 18.805C13.1912 18.805 13.6894 18.9935 14.0394 19.3705C14.4165 19.7474 14.605 20.286 14.605 20.9861V36.7382C14.605 37.4383 14.4299 37.9902 14.0798 38.3941C13.7298 38.7711 13.2181 38.9596 12.5449 38.9596ZM12.5449 14.6045C11.737 14.6045 11.1041 14.4025 10.6463 13.9986C10.2154 13.5947 10 13.0292 10 12.3022C10 11.5483 10.2154 10.9828 10.6463 10.6058C11.1041 10.2019 11.737 10 12.5449 10C13.3527 10 13.9721 10.2019 14.403 10.6058C14.8608 10.9828 15.0897 11.5483 15.0897 12.3022C15.0897 13.0292 14.8608 13.5947 14.403 13.9986C13.9721 14.4025 13.3527 14.6045 12.5449 14.6045Z" fill="white"/>
<path d="M22.3673 39C21.721 39 21.2228 38.825 20.8727 38.4749C20.5227 38.098 20.3476 37.5863 20.3476 36.9401V20.7841C20.3476 20.111 20.5227 19.5993 20.8727 19.2493C21.2228 18.8993 21.7076 18.7242 22.3269 18.7242C22.9733 18.7242 23.458 18.8993 23.7811 19.2493C24.1312 19.5993 24.3063 20.111 24.3063 20.7841V23.9345L23.8619 23.2075C24.4544 21.6996 25.3835 20.5687 26.6492 19.8148C27.9148 19.0339 29.369 18.6435 31.0118 18.6435C32.5737 18.6435 33.8663 18.9396 34.8896 19.532C35.9399 20.0975 36.7208 20.9726 37.2325 22.1574C37.7442 23.3152 38 24.7827 38 26.5599V36.9401C38 37.5863 37.825 38.098 37.4749 38.4749C37.1248 38.825 36.6266 39 35.9803 39C35.307 39 34.7954 38.825 34.4453 38.4749C34.0952 38.098 33.9202 37.5863 33.9202 36.9401V26.8022C33.9202 25.1058 33.5835 23.8672 32.9103 23.0864C32.264 22.3055 31.2407 21.915 29.8403 21.915C28.1976 21.915 26.8781 22.4266 25.8817 23.4499C24.9122 24.4731 24.4275 25.8463 24.4275 27.5696V36.9401C24.4275 38.3134 23.7407 39 22.3673 39Z" fill="white"/>
</svg>
