<svg width="50" height="50" viewBox="0 0 50 50" fill="none" xmlns="http://www.w3.org/2000/svg">
<rect width="50" height="50" rx="20" fill="#C0C0C0"/>
<path d="M10.7758 35.7227C10.205 35.7227 9.76105 35.5789 9.44395 35.2913C9.14798 34.9832 9 34.5518 9 33.9972V15.7255C9 15.1709 9.14798 14.7498 9.44395 14.4622C9.76105 14.1541 10.205 14 10.7758 14H18.3229C19.8661 14 21.1768 14.226 22.255 14.6779C23.3543 15.1298 24.1893 15.7768 24.7601 16.619C25.352 17.4613 25.648 18.4781 25.648 19.6695C25.648 20.9841 25.2463 22.0934 24.443 22.9972C23.6397 23.901 22.5509 24.507 21.1768 24.8151V24.3529C22.7412 24.5584 23.9673 25.1335 24.8552 26.0784C25.7431 27.0028 26.1871 28.2148 26.1871 29.7143C26.1871 31.6452 25.5317 33.1345 24.221 34.1821C22.9103 35.2091 21.0711 35.7227 18.7034 35.7227H10.7758ZM12.171 33.2577H18.3229C19.9084 33.2577 21.0817 32.9598 21.8427 32.3641C22.6038 31.7479 22.9843 30.8235 22.9843 29.591C22.9843 28.3585 22.6038 27.4444 21.8427 26.8487C21.0817 26.253 19.9084 25.9552 18.3229 25.9552H12.171V33.2577ZM12.171 23.4902H17.8155C19.3376 23.4902 20.4898 23.1923 21.272 22.5966C22.0541 22.0009 22.4452 21.1279 22.4452 19.9776C22.4452 18.8273 22.0541 17.9542 21.272 17.3585C20.4898 16.7628 19.3376 16.465 17.8155 16.465H12.171V23.4902Z" fill="white"/>
<path d="M35.7213 36C34.0301 36 32.5714 35.6919 31.3453 35.0756C30.1403 34.4388 29.1995 33.5453 28.5231 32.395C27.8677 31.2241 27.54 29.8375 27.54 28.2353C27.54 26.6741 27.8677 25.3081 28.5231 24.1373C29.1784 22.9664 30.0769 22.0523 31.2184 21.395C32.36 20.7376 33.6601 20.409 35.1188 20.409C36.197 20.409 37.1589 20.5836 38.0045 20.9328C38.8501 21.2614 39.5689 21.7544 40.1608 22.4118C40.7739 23.0486 41.2284 23.8291 41.5243 24.7535C41.8414 25.6779 42 26.7152 42 27.8655C42 28.2148 41.8943 28.4818 41.6829 28.6667C41.4715 28.831 41.1544 28.9132 40.7316 28.9132H30.0769V27.0028H39.8437L39.3046 27.4342C39.3046 26.4071 39.1461 25.5341 38.829 24.8151C38.533 24.0962 38.0785 23.5518 37.4654 23.1821C36.8735 22.7918 36.1336 22.5966 35.2457 22.5966C34.2521 22.5966 33.4065 22.8226 32.7088 23.2745C32.0323 23.7264 31.5144 24.3529 31.155 25.1541C30.7956 25.9552 30.6159 26.8898 30.6159 27.958V28.1429C30.6159 29.9505 31.0493 31.3165 31.9161 32.2409C32.804 33.1447 34.083 33.5966 35.753 33.5966C36.3872 33.5966 37.0532 33.5145 37.7508 33.3501C38.4696 33.1858 39.1461 32.9085 39.7803 32.5182C40.1397 32.3128 40.4568 32.2204 40.7316 32.2409C41.0275 32.2614 41.2601 32.3539 41.4292 32.5182C41.6195 32.6825 41.7357 32.888 41.778 33.1345C41.8203 33.381 41.778 33.6377 41.6512 33.9048C41.5243 34.1513 41.3024 34.3772 40.9853 34.5826C40.2665 35.0551 39.4315 35.4146 38.4801 35.6611C37.5288 35.887 36.6092 36 35.7213 36Z" fill="white"/>
<path d="M30 17H39" stroke="white" stroke-linecap="round"/>
</svg>
